<?xml version="1.0" encoding="UTF-8"?>
<svg id="Layer_1" xmlns="http://www.w3.org/2000/svg" version="1.1" xmlns:xlink="http://www.w3.org/1999/xlink" viewBox="0 0 512 512">
  <!-- Generator: Adobe Illustrator 30.3.0, SVG Export Plug-In . SVG Version: 2.1.3 Build 182)  -->
  <defs>
    <style>
      .st0 {
        fill: url(#linear-gradient2);
      }

      .st1 {
        fill: #ffe27a;
        opacity: .4;
      }

      .st1, .st2 {
        isolation: isolate;
      }

      .st3 {
        fill: url(#linear-gradient1);
      }

      .st2 {
        fill: #4a330a;
        opacity: .8;
      }

      .st4 {
        fill: url(#linear-gradient3);
      }

      .st5 {
        fill: #0f1b0a;
      }

      .st6 {
        fill: url(#linear-gradient);
      }
    </style>
    <linearGradient id="linear-gradient" x1="-253.6" y1="767.2" x2="-253.6" y2="766.2" gradientTransform="translate(76351 107551) scale(300 -140)" gradientUnits="userSpaceOnUse">
      <stop offset="0" stop-color="#fff6c4"/>
      <stop offset=".1" stop-color="#ffe27a"/>
      <stop offset=".4" stop-color="#ffc733"/>
      <stop offset=".6" stop-color="#d89b1f"/>
      <stop offset=".8" stop-color="#9a6b10"/>
      <stop offset="1" stop-color="#5c3e06"/>
    </linearGradient>
    <linearGradient id="linear-gradient1" x1="-254.1" y1="765.9" x2="-253.1" y2="765.9" gradientTransform="translate(76351 73715) scale(300 -96)" gradientUnits="userSpaceOnUse">
      <stop offset="0" stop-color="#fff" stop-opacity="0"/>
      <stop offset=".5" stop-color="#fff" stop-opacity=".9"/>
      <stop offset="1" stop-color="#fff" stop-opacity="0"/>
    </linearGradient>
    <linearGradient id="linear-gradient2" x1="-253.6" y1="767.2" x2="-253.6" y2="766.2" gradientTransform="translate(76351 107641) scale(300 -140)" gradientUnits="userSpaceOnUse">
      <stop offset="0" stop-color="#fff6c4"/>
      <stop offset=".1" stop-color="#ffe27a"/>
      <stop offset=".4" stop-color="#ffc733"/>
      <stop offset=".6" stop-color="#d89b1f"/>
      <stop offset=".8" stop-color="#9a6b10"/>
      <stop offset="1" stop-color="#5c3e06"/>
    </linearGradient>
    <linearGradient id="linear-gradient3" x1="-254.1" y1="765.9" x2="-253.1" y2="765.9" gradientTransform="translate(76351 73805) scale(300 -96)" gradientUnits="userSpaceOnUse">
      <stop offset="0" stop-color="#fff" stop-opacity="0"/>
      <stop offset=".5" stop-color="#fff" stop-opacity=".9"/>
      <stop offset="1" stop-color="#fff" stop-opacity="0"/>
    </linearGradient>
  </defs>
  <rect class="st5" width="512" height="512"/>
  <g>
    <polygon class="st6" points="106 230 256 140 406 230 406 280 256 190 106 280 106 230"/>
    <polygon class="st2" points="106 280 256 190 406 280 406 270 256 180 106 270 106 280"/>
    <polygon class="st3" points="106 230 256 140 406 230 388 236 256 156 124 236 106 230"/>
    <polygon class="st1" points="106 280 256 190 406 280 400 282 256 198 112 282 106 280"/>
    <polygon class="st0" points="106 320 256 230 406 320 406 370 256 280 106 370 106 320"/>
    <polygon class="st2" points="106 370 256 280 406 370 406 360 256 270 106 360 106 370"/>
    <polygon class="st4" points="106 320 256 230 406 320 388 326 256 246 124 326 106 320"/>
    <polygon class="st1" points="106 370 256 280 406 370 400 372 256 288 112 372 106 370"/>
  </g>
</svg>